<?xml version="1.0" encoding="iso-8859-1"?>
<!-- Generator: Adobe Illustrator 19.0.0, SVG Export Plug-In . SVG Version: 6.00 Build 0)  -->
<svg version="1.1" id="Capa_1" xmlns="http://www.w3.org/2000/svg" xmlns:xlink="http://www.w3.org/1999/xlink" x="0px" y="0px"
	 viewBox="0 0 512 512" style="enable-background:new 0 0 512 512;" xml:space="preserve">
<polyline style="fill:#EAA50C;" points="430.606,228.468 430.606,94.507 219.586,94.507 184.832,222.814 184.832,400.042 
	240.951,400.042 "/>
<polyline style="fill:#A0D9F2;" points="281.635,227.305 213.61,226.643 241.609,123.282 401.831,123.282 401.831,215.124 "/>
<path style="fill:#A56B04;" d="M477.606,356.718h26.79c0-82.269-66.692-148.961-148.961-148.961s-148.951,66.692-148.951,148.961
	v43.324"/>
<path style="fill:#EAA50C;" d="M165.278,400.044h19.557V222.816H41.849c-18.915,0-34.243,15.328-34.243,34.252v142.976"/>
<path style="fill:#F7B32D;" d="M41.849,222.816c-18.915,0-34.243,15.328-34.243,34.252v38.527c0-18.925,15.328-34.252,34.243-34.252
	h142.985v-38.527L41.849,222.816L41.849,222.816z"/>
<circle style="fill:#444D56;" cx="355.44" cy="356.716" r="122.17"/>
<circle style="fill:#9AA7B8;" cx="355.44" cy="356.716" r="76.192"/>
<g>
	<circle style="fill:#444D56;" cx="355.44" cy="356.716" r="28.705"/>
	<circle style="fill:#444D56;" cx="86.442" cy="400.039" r="78.838"/>
</g>
<circle style="fill:#9AA7B8;" cx="86.442" cy="400.039" r="38.174"/>
<rect x="171.626" y="65.262" style="fill:#A56B04;" width="258.981" height="29.24"/>
<path style="fill:#FFE300;" d="M35.136,305.528c14.568,0,26.378-11.809,26.378-26.378c0-14.568-11.809-26.378-26.378-26.378V305.528
	z"/>
<path style="fill:#444D56;" d="M105.581,115.608h-19.46c-7.87,0-14.25,6.379-14.25,14.25v92.956h47.959v-92.956
	C119.831,121.988,113.451,115.608,105.581,115.608z"/>
<path style="fill:#2C343A;" d="M105.99,115.629c-0.137-0.004-0.271-0.02-0.409-0.02h-19.46c-7.87,0-14.25,6.379-14.25,14.25v92.956
	h20.277v-92.956C92.149,122.126,98.311,115.847,105.99,115.629z"/>
<path d="M355.436,272.92c-46.204,0-83.793,37.59-83.793,83.793c0,46.204,37.589,83.794,83.793,83.794s83.793-37.59,83.793-83.794
	C439.23,310.51,401.64,272.92,355.436,272.92z M355.436,425.299c-37.818,0-68.585-30.768-68.585-68.586s30.768-68.585,68.585-68.585
	s68.585,30.768,68.585,68.585C424.022,394.531,393.255,425.299,355.436,425.299z"/>
<path d="M355.436,320.404c-20.022,0-36.309,16.288-36.309,36.309s16.288,36.309,36.309,36.309c20.021,0,36.309-16.288,36.309-36.309
	S375.457,320.404,355.436,320.404z M355.436,377.815c-11.636,0-21.102-9.465-21.102-21.101s9.466-21.102,21.102-21.102
	s21.101,9.465,21.101,21.102S367.072,377.815,355.436,377.815z"/>
<path d="M438.21,223.883V94.507v-29.24c0-4.199-3.405-7.604-7.604-7.604h-28.099c-4.199,0-7.604,3.405-7.604,7.604l0,0
	c0,4.199,3.405,7.604,7.604,7.604h20.495v14.032H219.586H179.23V72.871h187.79c4.199,0,7.604-3.405,7.604-7.604l0,0
	c0-4.199-3.405-7.604-7.604-7.604H171.626c-4.199,0-7.604,3.405-7.604,7.604v29.24c0,4.199,3.405,7.604,7.604,7.604h38.022
	l-30.636,113.102h-51.578v-85.355c0-12.069-9.784-21.854-21.854-21.854h-3.032V58.56c0-9.851,7.986-17.837,17.837-17.837h7.736
	c4.199,0,7.604-3.405,7.604-7.604l0,0c0-4.199-3.405-7.604-7.604-7.604h-7.736c-18.25,0-33.045,14.794-33.045,33.045v49.445h-1.22
	c-12.069,0-21.854,9.784-21.854,21.854v85.355H41.849c-23.111,0-41.846,18.735-41.846,41.846v142.866
	c0,0.04-0.003,0.078-0.003,0.117c0,47.665,38.778,86.442,86.442,86.442c45.1,0,82.221-34.724,86.088-78.836h12.304v-0.002h51.251
	c19.838,46.31,65.866,78.838,119.352,78.838c69.001,0,125.588-54.135,129.541-122.162h19.418c4.2,0,7.604-3.411,7.604-7.611
	C511.998,300.755,482.482,251.572,438.21,223.883z M79.477,129.858c0-3.664,2.981-6.646,6.646-6.646h19.46
	c3.664,0,6.646,2.981,6.646,6.646v85.352H79.477V129.858z M86.442,471.276c-39.278,0-71.233-31.955-71.234-71.232h0.003v-0.119
	c0.064-39.224,31.991-71.117,71.231-71.117c39.279,0,71.234,31.956,71.234,71.235S125.721,471.276,86.442,471.276z M177.228,329.779
	v62.662h-4.698c-3.865-44.115-40.987-78.841-86.088-78.841c-29.526,0-55.631,14.889-71.231,37.544v-94.075
	c0-14.717,11.931-26.648,26.648-26.648h135.37v63.872c0,4.199,3.405,7.604,7.604,7.604l0,0c4.199,0,7.604-3.405,7.604-7.604v-70.467
	l32.969-121.714h197.598V215.5c-4.412-2.12-8.938-4.039-13.567-5.745v-86.472c0-4.199-3.405-7.604-7.604-7.604H241.609
	c-3.434,0-6.442,2.301-7.339,5.616l-27.999,103.361c-0.815,3.011,0.278,6.297,2.959,8.208c1.311,0.934,2.914,1.37,4.523,1.385
	l43.738,0.426c-35.711,28.72-58.611,72.755-58.611,122.044v35.72h-6.443v-62.66c0-4.199-3.405-7.604-7.604-7.604l0,0
	C180.633,322.175,177.228,325.579,177.228,329.779z M279.791,219.683l-56.268-0.547l23.905-88.25h146.799v74.134
	c-12.41-3.175-25.406-4.867-38.792-4.867C328.017,200.153,302.227,207.247,279.791,219.683z M355.436,471.276
	c-63.171,0-114.563-51.393-114.563-114.563c0-63.17,51.393-114.562,114.563-114.562s114.562,51.393,114.562,114.562
	C469.999,419.884,418.607,471.276,355.436,471.276z M484.979,349.114c-3.949-68.031-60.538-122.17-129.542-122.17
	c-71.555,0-129.771,58.215-129.771,129.77c0,12.386,1.747,24.371,5.002,35.724h-16.581v-35.72
	c0-77.945,63.409-141.357,141.347-141.357c75.395,0,137.193,59.329,141.156,133.753H484.979z"/>
<path d="M86.442,354.264c-25.242,0-45.778,20.536-45.778,45.778c0,25.242,20.536,45.778,45.778,45.778s45.778-20.536,45.778-45.778
	C132.22,374.8,111.684,354.264,86.442,354.264z M86.442,430.612c-16.856,0-30.57-13.713-30.57-30.57s13.713-30.57,30.57-30.57
	s30.57,13.713,30.57,30.57S103.298,430.612,86.442,430.612z"/>
<path d="M35.136,245.167c-4.199,0-7.604,3.405-7.604,7.604v52.755c0,4.199,3.405,7.604,7.604,7.604
	c18.737,0,33.982-15.244,33.982-33.982S53.875,245.167,35.136,245.167z M42.74,296.314v-34.328
	c6.575,2.924,11.17,9.517,11.17,17.165S49.315,293.39,42.74,296.314z"/>
<path d="M146.689,240.371h-34.53c-4.199,0-7.604,3.405-7.604,7.604c0,4.199,3.405,7.604,7.604,7.604h34.53
	c4.199,0,7.604-3.405,7.604-7.604C154.292,243.775,150.888,240.371,146.689,240.371z"/>
<path d="M146.689,264.352h-34.53c-4.199,0-7.604,3.405-7.604,7.604c0,4.199,3.405,7.604,7.604,7.604h34.53
	c4.199,0,7.604-3.405,7.604-7.604C154.292,267.756,150.888,264.352,146.689,264.352z"/>
<path d="M146.689,288.334h-34.53c-4.199,0-7.604,3.405-7.604,7.604s3.405,7.604,7.604,7.604h34.53c4.199,0,7.604-3.405,7.604-7.604
	S150.888,288.334,146.689,288.334z"/>
<g>
</g>
<g>
</g>
<g>
</g>
<g>
</g>
<g>
</g>
<g>
</g>
<g>
</g>
<g>
</g>
<g>
</g>
<g>
</g>
<g>
</g>
<g>
</g>
<g>
</g>
<g>
</g>
<g>
</g>
</svg>
