<svg width="491" height="362" viewBox="0 0 491 362" fill="none" xmlns="http://www.w3.org/2000/svg">
<g id="Bulldozer">
<path id="Vector" d="M314.971 264.584H57.426C35.7 264.584 18.026 282.258 18.026 303.983C18.026 325.709 35.701 343.383 57.426 343.383H314.971C336.697 343.383 354.371 325.708 354.371 303.983C354.371 282.259 336.696 264.585 314.971 264.584ZM314.971 334.883H57.426C40.388 334.883 26.526 321.021 26.526 303.983C26.526 286.945 40.388 273.084 57.426 273.084H314.971C332.009 273.085 345.871 286.946 345.871 303.983C345.871 321.022 332.009 334.883 314.971 334.883Z" fill="#FFFDFD"/>
<path id="Vector_2" d="M314.836 246.283H57.818C25.938 246.283 0 272.167 0 303.983C0 304.339 0.044 304.685 0.126 305.015C0.681 336.356 26.348 361.684 57.818 361.684H314.836C346.652 361.684 372.537 335.799 372.537 303.983C372.537 272.168 346.652 246.284 314.836 246.283ZM314.836 353.184H57.818C30.688 353.184 8.617 331.112 8.617 303.983C8.617 303.654 8.58 303.334 8.509 303.027C9.022 276.338 30.945 254.783 57.819 254.783H314.837C341.967 254.784 364.038 276.855 364.038 303.983C364.037 331.112 341.966 353.184 314.836 353.184Z" fill="#FFFDFD"/>
<path id="Vector_3" d="M59.027 280.059C45.835 280.059 35.101 290.791 35.101 303.984C35.101 317.177 45.834 327.91 59.027 327.91C72.219 327.91 82.953 317.177 82.953 303.984C82.953 290.792 72.22 280.059 59.027 280.059ZM59.027 319.41C50.521 319.41 43.601 312.49 43.601 303.984C43.601 295.479 50.521 288.559 59.027 288.559C67.533 288.559 74.453 295.478 74.453 303.984C74.453 312.49 67.533 319.41 59.027 319.41Z" fill="#FFFDFD"/>
<path id="Vector_4" d="M143.699 280.059C130.506 280.059 119.771 290.791 119.771 303.984C119.771 317.177 130.505 327.91 143.699 327.91C156.891 327.91 167.625 317.177 167.625 303.984C167.625 290.792 156.892 280.059 143.699 280.059ZM143.699 319.41C135.192 319.41 128.271 312.49 128.271 303.984C128.271 295.479 135.192 288.559 143.699 288.559C152.205 288.559 159.125 295.478 159.125 303.984C159.125 312.49 152.205 319.41 143.699 319.41Z" fill="#FFFDFD"/>
<path id="Vector_5" d="M228.369 280.058C215.177 280.058 204.443 290.791 204.443 303.984C204.443 317.177 215.176 327.91 228.369 327.91C241.561 327.91 252.295 317.177 252.295 303.984C252.295 290.791 241.561 280.058 228.369 280.058ZM228.369 319.41C219.863 319.41 212.943 312.49 212.943 303.984C212.943 295.478 219.863 288.558 228.369 288.558C236.875 288.558 243.795 295.478 243.795 303.984C243.795 312.49 236.875 319.41 228.369 319.41Z" fill="#FFFDFD"/>
<path id="Vector_6" d="M313.041 280.058C299.849 280.058 289.115 290.791 289.115 303.984C289.115 317.177 299.848 327.91 313.041 327.91C326.232 327.91 336.965 317.177 336.965 303.984C336.965 290.791 326.232 280.058 313.041 280.058ZM313.041 319.41C304.535 319.41 297.615 312.49 297.615 303.984C297.615 295.478 304.535 288.558 313.041 288.558C321.546 288.558 328.465 295.478 328.465 303.984C328.465 312.49 321.546 319.41 313.041 319.41Z" fill="#FFFDFD"/>
<path id="Vector_7" d="M478.16 211.826C478.474 209.872 478.644 207.87 478.644 205.829C478.644 192.562 471.729 180.889 461.32 174.198L429.611 20.652C429.601 20.605 429.58 20.564 429.569 20.518C429.42 19.837 429.249 19.157 429.042 18.479C425.226 5.969 412.683 -1.551 399.842 1.004L262.908 29.338C257.988 21.73 248.654 16.23 239.803 16.23H112.23C101.251 16.23 92.318 25.163 92.318 36.142V65.824H32.088C25.333 65.824 19.838 71.319 19.838 78.074V212.334C19.838 212.431 19.841 212.528 19.848 212.625C20.7 225.043 31.121 234.772 43.573 234.772H308.509C321.598 234.772 332.247 224.123 332.247 211.034C332.247 208.024 331.678 205.146 330.651 202.494C330.643 202.471 330.637 202.447 330.629 202.423L290.863 99.952L360.534 71.411L408.137 187.729C405.172 193.102 403.479 199.271 403.479 205.831C403.479 220.4 411.819 233.051 423.969 239.285L403.586 303.797C403.461 304.19 403.041 304.414 402.644 304.287L393.675 301.453C392.386 301.047 390.976 301.277 389.883 302.078C388.79 302.879 388.145 304.152 388.145 305.506V320.362C388.145 322.197 389.322 323.824 391.065 324.399C398.672 326.906 406.624 328.178 414.7 328.178C456.327 328.178 490.192 294.312 490.192 252.686C490.191 238.102 486.029 224.019 478.16 211.826ZM100.818 36.142C100.818 29.85 105.937 24.73 112.23 24.73H239.802C246.715 24.73 254.668 30.174 257.168 36.619L316.129 188.557C313.734 187.743 311.173 187.294 308.507 187.294H294.115L243.592 57.099C240.789 49.88 232.528 44.226 224.786 44.226H136.013C127.66 44.226 120.864 51.021 120.864 59.375V65.824H100.817V36.142H100.818ZM129.365 66.111V59.375C129.365 55.709 132.347 52.726 136.013 52.726H224.786C229.042 52.726 234.127 56.207 235.668 60.175L275.666 163.246H163.395C161.047 163.246 159.145 165.149 159.145 167.496C159.145 169.843 161.047 171.746 163.395 171.746H278.965L284.999 187.295H139.004V78.074C139.004 72.215 134.869 67.311 129.365 66.111ZM308.508 226.271H43.572C35.617 226.271 28.951 220.092 28.338 212.179V205.161C28.776 205.313 29.238 205.413 29.729 205.413H99.729C102.077 205.413 103.979 203.51 103.979 201.163C103.979 198.816 102.077 196.913 99.729 196.913H29.729C29.239 196.913 28.776 197.013 28.338 197.165V124.746H58.397C60.745 124.746 62.647 122.843 62.647 120.496C62.647 118.149 60.745 116.246 58.397 116.246H28.338V98.08H97.063C99.411 98.08 101.313 96.177 101.313 93.83C101.313 91.483 99.411 89.58 97.063 89.58H28.338V78.074C28.338 76.006 30.021 74.324 32.088 74.324H126.754C128.821 74.324 130.504 76.006 130.504 78.074V191.545C130.504 193.892 132.406 195.795 134.754 195.795H291.195C291.199 195.795 291.203 195.796 291.208 195.796C291.211 195.796 291.215 195.795 291.219 195.795H308.508C316.91 195.796 323.746 202.631 323.746 211.033C323.746 219.435 316.91 226.271 308.508 226.271ZM266.537 37.267L401.53 9.334C410.043 7.647 418.375 12.642 420.911 20.959C423.466 29.333 419.294 38.148 411.209 41.465L287.787 92.025L266.537 37.267ZM368.399 68.188L414.433 49.33C418.848 47.519 422.482 44.616 425.145 41.055L451.732 169.798C448.347 168.794 444.768 168.246 441.062 168.246C430.467 168.246 420.889 172.659 414.05 179.736L368.399 68.188ZM411.978 205.83C411.978 189.793 425.025 176.746 441.062 176.746C457.098 176.746 470.144 189.793 470.144 205.83C470.144 221.867 457.098 234.913 441.062 234.913C425.025 234.913 411.978 221.866 411.978 205.83ZM414.699 319.675C408.556 319.675 402.497 318.847 396.644 317.212V311.304L400.083 312.39C402.44 313.135 404.944 312.917 407.137 311.777C409.329 310.637 410.947 308.712 411.692 306.356L431.935 242.286C434.859 243.018 437.915 243.413 441.063 243.413C455.71 243.413 468.417 234.985 474.616 222.729C479.259 231.983 481.692 242.187 481.692 252.684C481.691 289.623 451.639 319.675 414.699 319.675Z" fill="#FFFDFD"/>
<path id="Vector_8" d="M457.978 205.83C457.978 196.502 450.389 188.913 441.062 188.913C431.734 188.913 424.144 196.502 424.144 205.83C424.144 215.158 431.734 222.747 441.062 222.747C450.39 222.747 457.978 215.158 457.978 205.83ZM432.645 205.83C432.645 201.189 436.421 197.413 441.063 197.413C445.704 197.413 449.479 201.189 449.479 205.83C449.479 210.471 445.704 214.247 441.063 214.247C436.421 214.247 432.645 210.471 432.645 205.83Z" fill="#FFFDFD"/>
</g>
</svg>
