<svg width="512" height="512" viewBox="0 0 512 512" fill="none" xmlns="http://www.w3.org/2000/svg">
<g id="veinticuatro-horas 1">
<path id="Vector" d="M177.779 275.969C173.637 275.969 170.279 279.327 170.279 283.469C170.279 287.611 173.637 290.969 177.779 290.969H335.425C339.567 290.969 342.925 287.611 342.925 283.469C342.925 279.327 339.567 275.969 335.425 275.969H177.779Z" fill="#F3ECEC"/>
<path id="Vector_2" d="M223.28 155.219C239.52 155.219 254.64 165.859 254.64 183.638C254.64 213.878 210.26 223.678 210.26 238.238V241.598H249.18C252.26 241.598 254.92 245.238 254.92 249.438C254.92 253.638 252.26 257.558 249.18 257.558H199.34C196.12 257.558 191.36 255.318 191.36 251.818V238.238C191.36 215.838 236.44 203.938 236.44 184.198C236.44 178.458 232.66 171.738 223.42 171.738C216.56 171.738 210.96 175.378 210.96 184.058C210.96 187.418 207.46 190.778 201.44 190.778C196.68 190.778 193.18 188.538 193.18 180.978C193.18 165.019 207.74 155.219 223.28 155.219Z" fill="#F3ECEC"/>
<path id="Vector_3" d="M294.961 235.299H261.361C257.861 235.299 255.201 232.919 255.201 228.859C255.201 227.739 255.481 226.479 256.181 225.219L289.361 159.979C291.041 156.479 294.121 155.219 297.061 155.219C300.281 155.219 306.161 158.019 306.161 162.219C306.161 162.919 305.881 163.759 305.461 164.599L278.581 218.359H294.961V203.659C294.961 199.599 299.581 197.919 304.061 197.919C308.681 197.919 313.161 199.599 313.161 203.659V218.359H319.741C323.521 218.359 325.481 222.559 325.481 226.899C325.481 231.099 322.681 235.299 319.741 235.299H313.161V251.819C313.161 255.599 308.681 257.559 304.061 257.559C299.581 257.559 294.961 255.599 294.961 251.819V235.299Z" fill="#F3ECEC"/>
<path id="Vector_4" d="M289.781 327.793C289.781 330.733 287.961 335.073 286.281 338.433L250.862 406.473C249.882 408.293 248.062 409.133 245.682 409.133C239.942 409.133 234.202 405.213 234.202 400.033C234.202 398.913 234.342 397.933 235.042 396.813L271.582 331.293V322.053H242.322V333.393C242.322 336.753 237.842 339.273 233.082 339.273C228.182 339.273 224.122 336.753 224.122 333.393V311.833C224.122 309.033 228.042 306.093 232.102 306.093H281.802C285.302 306.093 289.782 309.033 289.782 311.833V327.793H289.781Z" fill="#F3ECEC"/>
<g id="rueda">
<path id="Vector_5" d="M392.7 73.691C389.298 71.325 384.625 72.169 382.262 75.571C379.898 78.972 380.74 83.646 384.142 86.009C444.908 128.23 481.18 197.549 481.168 271.439C481.159 331.861 457.735 388.552 415.211 431.069C372.688 473.585 315.993 497 255.57 497C198.847 497 144.631 475.869 102.909 437.5C61.436 399.36 35.854 347.576 30.875 291.687C30.586 288.445 31.648 285.325 33.864 282.903C36.122 280.435 39.208 279.075 42.552 279.075C48.647 279.075 53.665 283.724 54.225 289.888C58.762 339.917 81.717 386.253 118.864 420.363C156.241 454.684 204.791 473.586 255.571 473.586C297.899 473.586 338.385 460.736 372.653 436.425C376.031 434.029 376.827 429.347 374.43 425.968C372.034 422.589 367.351 421.795 363.973 424.191C332.257 446.692 294.772 458.586 255.571 458.586C208.559 458.586 163.612 441.087 129.009 409.314C94.616 377.733 73.363 334.839 69.164 288.533C67.899 274.59 56.459 264.075 42.553 264.075C35.058 264.075 27.858 267.247 22.798 272.778C17.78 278.263 15.279 285.64 15.936 293.018C21.246 352.635 48.528 407.868 92.756 448.541C137.254 489.463 195.076 511.999 255.57 511.999C319.999 511.999 380.461 487.024 425.817 441.676C471.173 396.327 496.158 335.87 496.168 271.441C496.18 192.639 457.5 118.714 392.7 73.691V73.691Z" fill="#F3ECEC"/>
<path id="Vector_6" d="M168.755 76.865L230.549 112.542C237.458 116.531 245.704 116.53 252.611 112.542C259.518 108.554 263.641 101.412 263.641 93.437V84.398C310.706 86.382 354.664 105.69 388.12 139.241C423.361 174.581 442.763 221.53 442.754 271.44C442.749 297.901 437.382 323.443 426.803 347.358C416.579 370.469 402.005 390.963 383.485 408.273C380.459 411.101 380.298 415.847 383.127 418.874C384.604 420.454 386.604 421.253 388.608 421.253C390.442 421.253 392.281 420.584 393.728 419.232C413.732 400.536 429.477 378.396 440.522 353.427C451.952 327.59 457.75 300.007 457.755 271.444C457.765 217.534 436.807 166.823 398.743 128.651C360.687 90.488 310.052 69.385 256.163 69.231C254.175 69.199 252.257 70.013 250.846 71.42C249.435 72.827 248.642 74.738 248.642 76.731V93.439C248.642 97.119 246.173 98.941 245.112 99.554C244.051 100.167 241.237 101.394 238.05 99.554L176.256 63.877C173.069 62.037 172.725 58.988 172.725 57.762C172.725 56.536 173.069 53.486 176.256 51.646L238.05 15.97C239.2 15.306 240.429 14.97 241.677 15.003C245.101 15.063 248.642 17.728 248.642 22.085V38.317C248.642 42.452 251.989 45.807 256.124 45.817C291.904 45.902 326.099 54.116 357.759 70.23C361.449 72.107 365.966 70.64 367.845 66.948C369.724 63.257 368.254 58.741 364.563 56.862C333.001 40.798 299.085 32.093 263.643 30.947V22.085C263.643 10.12 253.907 0.214014 241.941 0.00501397C237.972 -0.056986 234.042 0.964014 230.551 2.98001L168.757 38.656C161.85 42.644 157.726 49.786 157.726 57.762C157.724 65.736 161.848 72.878 168.755 76.865Z" fill="#F3ECEC"/>
</g>
</g>
</svg>
