<svg id="Capa_1" enable-background="new 0 0 512 512" height="512" viewBox="0 0 512 512" width="512" xmlns="http://www.w3.org/2000/svg"><g><path d="m234.789 121 60-60h217.211v-61h-512v121zm-53.789-75h30v30h-30zm-60 0h30v30h-30zm-60 0h30v30h-30z"/><path d="m241 211h30v90h-30z"/><path d="m96.815 271h24.185v-60h-4.189z"/><path d="m307.211 91-60 60h-247.211v361h512v-421zm-160.606 334.395-21.211 21.211-19.394-19.395-19.395 19.395-21.211-21.211 19.395-19.395-19.395-19.395 21.211-21.211 19.395 19.395 19.395-19.395 21.211 21.211-19.395 19.395zm4.395-94.395h-30v-30h-65.815l40.005-120h55.81v90h30v30h-30zm60 90h-30v-30h30zm0-240h90v150h-90zm60 240h-30v-30h30zm60 0h-30v-30h30zm115.605 4.395-21.211 21.211-19.394-19.395-19.395 19.395-21.211-21.211 19.395-19.395-19.395-19.395 21.211-21.211 19.395 19.395 19.395-19.395 21.211 21.211-19.395 19.395zm4.395-124.395h-30v30h-30v-30h-65.815l40.005-120h55.81v90h30z"/><path d="m366.815 271h24.185v-60h-4.189z"/></g></svg>